<svg xmlns="http://www.w3.org/2000/svg" xmlns:dc="http://purl.org/dc/elements/1.1/" xmlns:cc="http://creativecommons.org/ns#" xmlns:rdf="http://www.w3.org/1999/02/22-rdf-syntax-ns#" xmlns:xlink="http://www.w3.org/1999/xlink" xmlns:inkscape="http://www.inkscape.org/namespaces/inkscape" version="1.1" width="80mm" height="80mm" viewBox="-40 -40 80 80"><metadata><rdf:RDF><cc:Work rdf:about=""><dc:format>image/svg+xml</dc:format><dc:type rdf:resource="http://purl.org/dc/dcmitype/StillImage"/><dc:title/></cc:Work></rdf:RDF></metadata><defs><g id="center-mark"><path d="m 0,-1 v 2 z" style="stroke:white;stroke-width:0.25"/><path d="m -1,0 h 2 z" style="stroke:white;stroke-width:0.25"/></g><g id="corner-keepout-once"><path id="corner-keepout-pad" d="m -4 -3 h 4 a 3,3 0 0 1 3,3 v 4 h -3 a 4,4 0 0 1 -4,-4 v -3 z" style="fill:white;stroke:none"/></g><g id="hole-once"><circle cx="0" cy="0" r="1.6" style="fill:black;stroke:none"/></g></defs><g inkscape:label="Board" id="layer-board" inkscape:groupmode="layer" style="display:inline"><path id="board" d="m -40 -36 a 4,4 0 0 1 4,-4 h 72 a 4,4 0 0 1 4,4 v 72 a 4,4 0 0 1 -4,4 h -72 a 4,4 0 0 1 -4,-4 v -72 z" style="fill:#900;stroke:none"/></g><g inkscape:label="Keepout" id="layer-keepout" inkscape:groupmode="layer" style="display:inline"><path id="edge-keepout" d="m -39.15 -36 a 3.15,3.15 0 0 1 3.15,-3.15 h 72 a 3.15,3.15 0 0 1 3.15,3.15 v 72 a 3.15,3.15 0 0 1 -3.15,3.15 h -72 a 3.15,3.15 0 0 1 -3.15,-3.15 v -72 z" style="stroke-width:1.7;fill:none;stroke:white"/><use transform="translate(-36,36)" id="lower-left-corner-keepout" x="0" y="0" xlink:href="#corner-keepout-once"/><use transform="matrix(-1,0,0,1,36,36)" id="lower-right-corner-keepout" x="0" y="0" xlink:href="#corner-keepout-once"/><use transform="matrix(-1,0,0,-1,36,-36)" id="upper-right-corner-keepout" x="0" y="0" xlink:href="#corner-keepout-once"/><use transform="matrix(1,0,0,-1,-36,-36)" id="upper-left-corner-keepout" x="0" y="0" xlink:href="#corner-keepout-once"/></g><g inkscape:label="Drill" id="layer-drill" inkscape:groupmode="layer" style="display:inline"><use transform="translate(-36,36)" id="lower-left-hole" x="0" y="0" xlink:href="#hole-once"/><use transform="matrix(-1,0,0,1,36,36)" id="lower-right-hole" x="0" y="0" xlink:href="#hole-once"/><use transform="matrix(-1,0,0,-1,36,-36)" id="upper-right-hole" x="0" y="0" xlink:href="#hole-once"/><use transform="matrix(1,0,0,-1,-36,-36)" id="upper-left-hole" x="0" y="0" xlink:href="#hole-once"/></g><g inkscape:label="Centers" inkscape:groupmode="layer" id="layer-centers" style="display:inline"><use id="center-center-mark" x="0" y="0" xlink:href="#center-mark"/><use transform="translate(-34.75,0)" id="left-usb-center-mark" x="0" y="0" xlink:href="#center-mark"/><use transform="translate(34.75,0)" id="right-usb-center-mark" x="0" y="0" xlink:href="#center-mark"/></g><g inkscape:label="Description" inkscape:groupmode="layer" id="layer-description" style="display:inline"><g id="descriptive-text" transform="translate(0,-6)"><text xml:space="preserve" y="-2" style="font-size:4;font-style:normal;font-variant:normal;font-weight:normal;font-stretch:normal;text-align:center;text-anchor:middle;fill:white;fill-opacity:1;font-family:monospace"><tspan>DP8080</tspan></text><text xml:space="preserve" y="2" style="font-size:4;font-style:normal;font-variant:normal;font-weight:normal;font-stretch:normal;text-align:center;text-anchor:middle;fill:white;fill-opacity:1;font-family:monospace"><tspan>80mm × 80mm</tspan></text></g></g></svg>
